<svg id="a8a1a444-1025-467c-87e1-d09b9f07149f" xmlns="http://www.w3.org/2000/svg" viewBox="0 0 28 28">
  <defs>
    <style>
      .cls-1 {
        fill: #d1cfcb;
      }
    </style>
  </defs>
  <title>arrowcircle_left_unactive_28x28</title>
  <path class="cls-1" d="M14,27A13,13,0,1,1,27,14,13,13,0,0,1,14,27m0,1A14,14,0,1,0,0,14,14,14,0,0,0,14,28Z"/>
  <path class="cls-1" d="M7.31,14.72l5.22,5a1,1,0,1,0,1.38-1.44L10.49,15H20a1,1,0,0,0,0-2H10.49l3.42-3.28a1,1,0,0,0-1.35-1.47l0,0-5.22,5A1,1,0,0,0,7,14,1.08,1.08,0,0,0,7.31,14.72Z"/>
</svg>
